<?xml version="1.0" encoding="UTF-8" standalone="no"?>
<svg
   xmlns:dc="http://purl.org/dc/elements/1.1/"
   xmlns:cc="http://creativecommons.org/ns#"
   xmlns:rdf="http://www.w3.org/1999/02/22-rdf-syntax-ns#"
   xmlns:svg="http://www.w3.org/2000/svg"
   xmlns="http://www.w3.org/2000/svg"
   viewBox="0 0 466.66666 466.66666"
   height="466.66666"
   width="466.66666"
   xml:space="preserve"
   id="svg2"
   version="1.1"><metadata
     id="metadata8"><rdf:RDF><cc:Work
         rdf:about=""><dc:format>image/svg+xml</dc:format><dc:type
           rdf:resource="http://purl.org/dc/dcmitype/StillImage" /></cc:Work></rdf:RDF></metadata><defs
     id="defs6" /><g
     transform="matrix(1.3333333,0,0,-1.3333333,0,466.66667)"
     id="g10"><g
       transform="scale(0.1)"
       id="g12"><path
         id="path14"
         style="fill:#f0357e;fill-opacity:1;fill-rule:nonzero;stroke:none"
         d="m 1106.45,2397.23 c -1.94,-2.16 -4.29,-3.83 -7.18,-4.89 -40.91,-17.25 -175.829,61.59 -314.379,185.81 -138.551,124.21 -231.598,249.76 -218.903,292.3 0.739,2.99 2.141,5.51 4.075,7.67 29.468,32.86 173.425,-48.12 321.558,-180.92 148.129,-132.81 244.289,-267.1 214.829,-299.97" /><path
         id="path16"
         style="fill:#6cbfb5;fill-opacity:1;fill-rule:nonzero;stroke:none"
         d="m 1106.45,2397.23 c -1.94,-2.16 -4.29,-3.83 -7.18,-4.89 -40.91,-17.25 -175.829,61.59 -314.379,185.81 -138.551,124.21 -231.598,249.76 -218.903,292.3 0.739,2.99 2.141,5.51 4.075,7.67 29.468,32.86 173.425,-48.12 321.558,-180.92 148.129,-132.81 244.289,-267.1 214.829,-299.97" /><path
         id="path18"
         style="fill:#f0357e;fill-opacity:1;fill-rule:nonzero;stroke:none"
         d="m 748.086,2576.64 c -0.785,0 -1.586,0 -2.383,0 -2.348,0.02 -4.687,0.13 -7.047,0.23 l -1.633,0.07 c -6.535,0.27 -11.617,5.79 -11.339,12.33 0.281,6.54 6.144,11.49 12.336,11.34 l 1.675,-0.07 c 2.075,-0.09 4.145,-0.18 6.192,-0.2 128.98,-0.73 234.074,77.23 266.553,199.02 31.77,119.19 78.67,196.93 139.36,231.07 46.48,26.14 83.6,15.71 85.13,15.25 6.29,-1.84 9.89,-8.42 8.05,-14.7 -1.83,-6.25 -8.35,-9.85 -14.64,-8.06 -1.35,0.37 -30.17,7.9 -67.82,-13.64 -37.46,-21.46 -89.95,-76.36 -127.19,-216.03 -35.14,-131.8 -147.748,-216.61 -287.244,-216.61" /><path
         id="path20"
         style="fill:#f0357e;fill-opacity:1;fill-rule:nonzero;stroke:none"
         d="m 676.336,2644.08 c -3.922,0 -7.762,1.95 -10.02,5.51 -3.507,5.53 -1.863,12.85 3.668,16.35 63.684,40.33 98.571,86.38 103.707,136.88 7.844,77.08 -56.836,140.44 -57.496,141.07 -105.672,121.44 -70.011,207.09 -68.437,210.68 2.613,5.99 9.59,8.73 15.597,6.1 5.981,-2.61 8.711,-9.55 6.141,-15.53 -1.34,-3.19 -30.43,-76.52 63.859,-184.93 2.27,-2.12 72.84,-70.96 63.93,-159.6 -5.844,-58.18 -44.41,-110.22 -114.617,-154.69 -1.969,-1.25 -4.168,-1.84 -6.332,-1.84" /><path
         id="path22"
         style="fill:#f0357e;fill-opacity:1;fill-rule:nonzero;stroke:none"
         d="m 909.172,2456.56 c -1.039,0 -2.094,0.14 -3.149,0.43 -6.293,1.74 -9.996,8.22 -8.281,14.52 0.992,3.62 25.328,88.96 122.598,108.42 43.94,8.79 90.43,0.41 130.9,-23.61 42,-24.92 125.38,-61.22 212.06,-24.52 5.97,2.53 12.98,-0.25 15.52,-6.29 2.55,-6.03 -0.26,-12.98 -6.29,-15.53 -96.27,-40.78 -187.56,-1.24 -233.38,25.97 -35.42,21.01 -75.94,28.37 -114.16,20.74 -82.588,-16.52 -103.541,-88.39 -104.396,-91.45 -1.457,-5.23 -6.227,-8.68 -11.422,-8.68" /><path
         id="path24"
         style="fill:#efb854;fill-opacity:1;fill-rule:nonzero;stroke:none"
         d="m 1264.2,2389.98 c 0,-19.97 -16.19,-36.16 -36.16,-36.16 -19.97,0 -36.16,16.19 -36.16,36.16 0,19.98 16.19,36.17 36.16,36.17 19.97,0 36.16,-16.19 36.16,-36.17" /><path
         id="path26"
         style="fill:#b4e6ea;fill-opacity:1;fill-rule:nonzero;stroke:none"
         d="m 869,3073.66 c 0,-20.64 -16.73,-37.37 -37.375,-37.37 -20.641,0 -37.375,16.73 -37.375,37.37 0,20.64 16.734,37.38 37.375,37.38 20.645,0 37.375,-16.74 37.375,-37.38" /><path
         id="path28"
         style="fill:#f0357e;fill-opacity:1;fill-rule:nonzero;stroke:none"
         d="m 936.289,2859.22 c 0,-12.5 -10.133,-22.64 -22.633,-22.64 -12.5,0 -22.633,10.14 -22.633,22.64 0,12.5 10.133,22.63 22.633,22.63 12.5,0 22.633,-10.13 22.633,-22.63" /><path
         id="path30"
         style="fill:#f0357e;fill-opacity:1;fill-rule:nonzero;stroke:none"
         d="m 1287.72,2859.22 c 0,-16.49 -13.36,-29.84 -29.84,-29.84 -16.48,0 -29.84,13.35 -29.84,29.84 0,16.48 13.36,29.84 29.84,29.84 16.48,0 29.84,-13.36 29.84,-29.84" /><path
         id="path32"
         style="fill:#efb854;fill-opacity:1;fill-rule:nonzero;stroke:none"
         d="m 616.781,2977.25 c 0,-18.24 -14.789,-33.02 -33.031,-33.02 -18.238,0 -33.027,14.78 -33.027,33.02 0,18.25 14.789,33.04 33.027,33.04 18.242,0 33.031,-14.79 33.031,-33.04" /><path
         id="path34"
         style="fill:#f0357e;fill-opacity:1;fill-rule:nonzero;stroke:none"
         d="m 1084.36,3085.52 -41.49,3.51 c -2.84,0.24 -5.61,-0.94 -7.41,-3.14 l -26.41,-32.18 c -4.55,-5.55 -13.472,-3.47 -15.105,3.51 l -9.484,40.54 c -0.648,2.77 -2.621,5.04 -5.27,6.08 l -38.773,15.17 c -6.676,2.61 -7.457,11.74 -1.328,15.45 l 35.625,21.55 c 2.437,1.47 3.988,4.05 4.156,6.89 l 2.445,41.56 c 0.422,7.16 8.864,10.72 14.286,6.04 l 31.498,-27.22 c 2.16,-1.86 5.09,-2.55 7.84,-1.83 l 40.29,10.52 c 6.93,1.82 12.93,-5.11 10.15,-11.72 l -16.15,-38.37 c -1.11,-2.62 -0.85,-5.62 0.68,-8.02 l 22.46,-35.06 c 3.86,-6.03 -0.87,-13.88 -8.01,-13.28" /><path
         id="path36"
         style="fill:#efb854;fill-opacity:1;fill-rule:nonzero;stroke:none"
         d="m 1115.98,2772.56 25.73,-24.62 c 2.5,-2.39 6.24,-2.9 9.28,-1.26 l 31.37,16.86 c 6.8,3.66 14.3,-3.52 10.95,-10.47 l -15.46,-32.09 c -1.5,-3.1 -0.83,-6.82 1.67,-9.21 l 25.73,-24.62 c 5.58,-5.33 1.07,-14.69 -6.58,-13.65 l -35.29,4.79 c -3.42,0.46 -6.75,-1.33 -8.25,-4.44 l -15.46,-32.08 c -3.35,-6.95 -13.64,-5.56 -15.02,2.04 l -6.35,35.04 c -0.61,3.4 -3.34,6.01 -6.76,6.48 l -35.29,4.79 c -7.65,1.04 -9.5,11.26 -2.7,14.91 l 31.36,16.87 c 3.04,1.64 4.68,5.04 4.07,8.44 l -6.35,35.04 c -1.38,7.59 7.77,12.51 13.35,7.18" /><path
         id="path38"
         style="fill:#efb854;fill-opacity:1;fill-rule:nonzero;stroke:none"
         d="m 1087.87,2277.2 24.44,-23.39 c 2.37,-2.26 5.93,-2.75 8.82,-1.2 l 29.79,16.03 c 6.46,3.47 13.59,-3.35 10.41,-9.96 l -14.69,-30.47 c -1.42,-2.95 -0.78,-6.49 1.59,-8.75 l 24.44,-23.39 c 5.3,-5.07 1.01,-13.95 -6.25,-12.97 l -33.52,4.55 c -3.25,0.44 -6.41,-1.26 -7.84,-4.21 l -14.69,-30.47 c -3.18,-6.61 -12.95,-5.28 -14.26,1.93 l -6.03,33.29 c -0.58,3.23 -3.18,5.71 -6.43,6.15 l -33.52,4.55 c -7.26,0.99 -9.02,10.69 -2.57,14.17 l 29.8,16.02 c 2.89,1.55 4.45,4.79 3.86,8.01 l -6.03,33.29 c -1.31,7.21 7.38,11.88 12.68,6.82" /><path
         id="path40"
         style="fill:#84cdc6;fill-opacity:1;fill-rule:nonzero;stroke:none"
         d="m 1099.27,2392.34 c -239.434,-164.9 -503.707,-303.66 -792.727,-416.17 -38.953,-15.16 -78.855,20.61 -68.02,60.98 80.399,299.55 189.586,577.35 327.465,833.3 -12.695,-42.54 80.352,-168.09 218.903,-292.3 138.55,-124.22 273.469,-203.06 314.379,-185.81" /><path
         id="path42"
         style="fill:#fde59e;fill-opacity:1;fill-rule:nonzero;stroke:none"
         d="m 858.555,2516.04 c -65.637,33.88 -135.61,66.36 -206.086,93.69 -60.774,26.65 -122.313,49.63 -182.403,69.24 4.872,10.42 9.739,20.83 14.735,31.13 59.484,-19.65 120.41,-42.42 180.687,-68.85 31.41,-12.12 62.571,-25.29 93.102,-39.02 8.59,-7.93 17.367,-16.03 26.32,-24.06 24.836,-22.26 49.59,-43.08 73.645,-62.13" /><path
         id="path44"
         style="fill:#fde59e;fill-opacity:1;fill-rule:nonzero;stroke:none"
         d="m 1022.97,2341.26 c -10.55,-6.92 -21.17,-13.78 -31.857,-20.59 -100.308,61.52 -228.043,131.93 -357.957,183.56 -63.597,28.61 -133.004,55.09 -205.996,78.71 4.5,10.51 9.121,21.04 13.75,31.44 72.938,-23.69 142.156,-50.12 205.57,-78.67 143.188,-56.89 281.336,-135.49 376.49,-194.45" /><path
         id="path46"
         style="fill:#fde59e;fill-opacity:1;fill-rule:nonzero;stroke:none"
         d="m 923.746,2278.88 c -11.051,-6.71 -22.047,-13.35 -33.223,-19.94 -84.019,49.67 -181.183,101.15 -280.031,141.42 -68.414,31.55 -143.804,60.42 -223.418,85.86 4.25,10.62 8.449,21.17 12.766,31.74 79.926,-25.6 155.691,-54.69 224.23,-86.35 108.981,-44.43 214.813,-101.97 299.676,-152.73" /><path
         id="path48"
         style="fill:#fde59e;fill-opacity:1;fill-rule:nonzero;stroke:none"
         d="m 820.309,2218.32 c -11.668,-6.49 -23.211,-12.98 -34.942,-19.42 -63.133,35.52 -131.527,70.15 -200.887,99.1 -71.296,33.57 -150.718,64.33 -234.687,90.92 3.949,10.67 7.953,21.39 12.023,32.07 84.711,-26.91 164.747,-57.89 236.547,-91.78 78.016,-32.6 154.352,-72.17 221.946,-110.89" /><path
         id="path50"
         style="fill:#fde59e;fill-opacity:1;fill-rule:nonzero;stroke:none"
         d="m 711.879,2159.61 c -12.274,-6.4 -24.613,-12.76 -37.016,-19.05 -38.863,20.29 -79.004,39.67 -119.57,56.9 -72.453,34.83 -153.742,66.58 -239.918,93.78 3.637,10.83 7.34,21.6 11.102,32.32 87.351,-27.68 169.621,-59.74 242.89,-95.06 48.789,-20.72 96.961,-44.43 142.512,-68.89" /><path
         id="path52"
         style="fill:#fde59e;fill-opacity:1;fill-rule:nonzero;stroke:none"
         d="m 596.922,2102.06 c -13.18,-6.4 -26.434,-12.62 -39.742,-18.9 -11.348,5.36 -22.801,10.47 -34.25,15.46 -71.992,35.22 -153.117,67.28 -239.297,94.6 3.445,11 6.836,21.93 10.293,32.81 87.164,-27.62 169.094,-60.06 243.328,-96.48 20.043,-8.69 39.996,-17.87 59.668,-27.49" /><path
         id="path54"
         style="fill:#fde59e;fill-opacity:1;fill-rule:nonzero;stroke:none"
         d="m 474.648,2045.79 c -13.98,-6.14 -28.027,-12.22 -42.136,-18.24 -55.848,24.98 -115.379,47.65 -177.903,67.61 3.086,10.98 6.172,21.96 9.383,32.83 74.821,-23.89 145.613,-51.5 210.656,-82.2" /><path
         id="path56"
         style="fill:#6cbfb5;fill-opacity:1;fill-rule:nonzero;stroke:none"
         d="m 1349.47,2721.14 c 5.34,-20.4 18.14,-36.4 32.21,-45.28 11.85,-7.48 23.38,-9.08 30.03,-4.19 3.69,2.71 4.88,8.06 3.14,14.32 -4.15,15.07 -23.2,31.69 -56.4,34.83 -2.84,0.27 -5.92,0.4 -8.98,0.32 z m 0.17,-81.82 c -1.3,0 -2.59,0.49 -3.57,1.47 -25.22,25.22 -36.85,55.53 -28.29,73.73 2.77,5.89 8.4,12.3 19.74,15.18 -1.25,9.48 -1.06,19.62 0.96,30.25 2.9,15.19 9.75,24.57 20.36,27.89 30.24,9.47 78.76,-36.95 84.19,-42.28 1.98,-1.95 2.01,-5.14 0.06,-7.13 -1.94,-1.99 -5.14,-2.03 -7.14,-0.07 -13.55,13.29 -53.27,46.42 -74.1,39.85 -6.88,-2.15 -11.29,-8.75 -13.46,-20.15 -1.8,-9.46 -1.98,-18.48 -0.87,-26.9 3.54,0.21 7.52,0.13 11.88,-0.3 37.98,-3.59 60.1,-23.77 65.19,-42.19 2.88,-10.45 0.29,-19.85 -6.91,-25.14 -10.24,-7.53 -25.72,-6.09 -41.39,3.8 -16.24,10.25 -31.01,28.81 -36.87,52.42 -5.45,-1.52 -10.1,-4.41 -12.5,-9.52 -6.57,-13.97 4.73,-40.75 26.28,-62.3 1.97,-1.97 1.97,-5.16 0,-7.14 -0.98,-0.98 -2.27,-1.47 -3.56,-1.47" /><path
         id="path58"
         style="fill:#efb854;fill-opacity:1;fill-rule:nonzero;stroke:none"
         d="m 433.734,2833.49 c -9.968,18.58 -26.156,31.14 -41.918,36.48 -13.265,4.5 -24.851,3.37 -30.171,-2.95 -2.961,-3.5 -2.856,-8.98 0.293,-14.66 7.562,-13.68 29.98,-25.37 62.984,-20.66 2.832,0.41 5.851,0.99 8.812,1.79 z M 414.422,2913 c 1.254,0.3 2.625,0.13 3.812,-0.6 30.418,-18.61 48.821,-45.36 44.754,-65.06 -1.312,-6.37 -5.285,-13.92 -15.636,-19.38 3.433,-8.92 5.625,-18.82 6.148,-29.63 0.738,-15.44 -3.723,-26.17 -13.266,-31.88 -27.187,-16.29 -85.218,17.49 -91.746,21.4 -2.383,1.43 -3.156,4.53 -1.726,6.92 1.422,2.39 4.519,3.17 6.922,1.74 16.285,-9.75 62.66,-32.67 81.367,-21.4 6.191,3.7 8.929,11.14 8.371,22.74 -0.461,9.61 -2.402,18.43 -5.445,26.35 -3.403,-1.03 -7.282,-1.88 -11.625,-2.49 -37.766,-5.39 -63.997,9.05 -73.25,25.76 -5.247,9.49 -4.938,19.24 0.832,26.07 8.191,9.71 23.578,11.94 41.125,5.99 18.191,-6.17 36.898,-20.76 48.121,-42.33 4.945,2.74 8.781,6.64 9.922,12.18 3.121,15.12 -14.137,38.51 -40.133,54.41 -2.379,1.46 -3.125,4.56 -1.672,6.94 0.73,1.19 1.871,1.97 3.125,2.27" /><path
         id="path60"
         style="fill:#f795ad;fill-opacity:1;fill-rule:nonzero;stroke:none"
         d="m 2123.57,2659.6 -2.59,-14.43 c -0.2,-1.1 -0.93,-2.03 -1.94,-2.49 l -13.36,-6.04 c -2.56,-1.16 -2.68,-4.76 -0.21,-6.09 l 12.93,-6.92 c 0.98,-0.52 1.64,-1.5 1.77,-2.61 l 1.62,-14.57 c 0.31,-2.8 3.69,-4.02 5.72,-2.08 l 10.58,10.15 c 0.8,0.78 1.94,1.11 3.03,0.88 l 14.36,-2.96 c 2.76,-0.57 4.96,2.27 3.74,4.8 l -6.38,13.19 c -0.49,1.01 -0.45,2.19 0.1,3.16 l 7.25,12.74 c 1.39,2.45 -0.62,5.42 -3.41,5.04 l -14.52,-1.99 c -1.11,-0.15 -2.22,0.25 -2.97,1.07 l -9.88,10.84 c -1.89,2.08 -5.35,1.08 -5.84,-1.69" /><path
         id="path62"
         style="fill:#f795ad;fill-opacity:1;fill-rule:nonzero;stroke:none"
         d="m 3092.87,2661.84 -2.32,-12.93 c -0.18,-0.98 -0.83,-1.82 -1.74,-2.23 l -11.97,-5.42 c -2.29,-1.04 -2.4,-4.25 -0.18,-5.44 l 11.58,-6.21 c 0.88,-0.47 1.47,-1.34 1.58,-2.34 l 1.46,-13.05 c 0.27,-2.5 3.3,-3.6 5.12,-1.86 l 9.47,9.1 c 0.73,0.69 1.74,0.98 2.72,0.78 l 12.86,-2.65 c 2.47,-0.51 4.45,2.03 3.35,4.3 l -5.72,11.82 c -0.43,0.9 -0.4,1.96 0.1,2.83 l 6.49,11.41 c 1.25,2.19 -0.55,4.85 -3.05,4.51 l -13.01,-1.78 c -0.99,-0.14 -1.98,0.22 -2.66,0.96 l -8.85,9.7 c -1.69,1.87 -4.79,0.97 -5.23,-1.5" /><path
         id="path64"
         style="fill:#efb854;fill-opacity:1;fill-rule:nonzero;stroke:none"
         d="m 2627.84,2613.64 c 0,-12.02 -9.75,-21.77 -21.77,-21.77 -12.03,0 -21.78,9.75 -21.78,21.77 0,12.03 9.75,21.78 21.78,21.78 12.02,0 21.77,-9.75 21.77,-21.78" /><path
         id="path66"
         style="fill:#84cdc6;fill-opacity:1;fill-rule:nonzero;stroke:none"
         d="m 2893.31,2611.38 c 0,-16.17 -13.1,-29.27 -29.26,-29.27 -16.16,0 -29.27,13.1 -29.27,29.27 0,16.16 13.11,29.26 29.27,29.26 16.16,0 29.26,-13.1 29.26,-29.26" /><path
         id="path68"
         style="fill:#f2518e;fill-opacity:1;fill-rule:nonzero;stroke:none"
         d="m 2674.82,3059.39 c 3.97,-15.16 13.48,-27.04 23.93,-33.64 8.8,-5.55 17.37,-6.75 22.31,-3.11 2.74,2.01 3.62,5.99 2.33,10.64 -3.08,11.19 -17.24,23.53 -41.89,25.87 -2.12,0.19 -4.4,0.3 -6.68,0.24 z m 0.13,-60.78 c -0.96,0 -1.92,0.36 -2.65,1.1 -18.73,18.72 -27.37,41.24 -21.01,54.76 2.06,4.37 6.24,9.13 14.66,11.28 -0.93,7.04 -0.79,14.57 0.71,22.46 2.15,11.29 7.24,18.26 15.13,20.72 22.46,7.03 58.5,-27.45 62.53,-31.4 1.47,-1.45 1.49,-3.82 0.04,-5.3 -1.44,-1.48 -3.81,-1.51 -5.3,-0.05 -10.06,9.87 -39.57,34.48 -55.03,29.6 -5.12,-1.6 -8.39,-6.5 -10,-14.97 -1.34,-7.02 -1.47,-13.72 -0.66,-19.98 2.64,0.15 5.59,0.09 8.83,-0.22 28.21,-2.67 44.65,-17.66 48.42,-31.34 2.14,-7.77 0.22,-14.75 -5.13,-18.68 -7.6,-5.59 -19.1,-4.52 -30.74,2.82 -12.06,7.62 -23.04,21.41 -27.39,38.94 -4.05,-1.12 -7.5,-3.27 -9.28,-7.07 -4.89,-10.37 3.51,-30.26 19.52,-46.28 1.46,-1.46 1.46,-3.83 0,-5.29 -0.73,-0.74 -1.69,-1.1 -2.65,-1.1" /><path
         id="path70"
         style="fill:#f2518e;fill-opacity:1;fill-rule:nonzero;stroke:none"
         d="m 2926.91,3083.48 3.12,-17.35 c 0.24,-1.32 1.11,-2.44 2.33,-2.99 l 16.06,-7.27 c 3.09,-1.4 3.23,-5.72 0.25,-7.31 l -15.54,-8.33 c -1.18,-0.63 -1.98,-1.81 -2.13,-3.14 l -1.95,-17.53 c -0.37,-3.36 -4.44,-4.83 -6.88,-2.49 l -12.72,12.21 c -0.97,0.93 -2.33,1.32 -3.64,1.05 l -17.27,-3.56 c -3.31,-0.68 -5.97,2.73 -4.5,5.77 l 7.68,15.87 c 0.59,1.21 0.54,2.63 -0.13,3.8 l -8.72,15.32 c -1.67,2.93 0.75,6.52 4.1,6.06 l 17.47,-2.4 c 1.33,-0.18 2.66,0.3 3.57,1.29 l 11.87,13.03 c 2.28,2.5 6.44,1.3 7.03,-2.03" /><path
         id="path72"
         style="fill:#efb854;fill-opacity:1;fill-rule:nonzero;stroke:none"
         d="m 2277.39,3073.43 c -15.69,0 -28.41,-12.73 -28.41,-28.42 0,-15.69 12.72,-28.41 28.41,-28.41 15.7,0 28.42,12.72 28.42,28.41 0,15.69 -12.72,28.42 -28.42,28.42" /><path
         id="path74"
         style="fill:#84cdc6;fill-opacity:1;fill-rule:nonzero;stroke:none"
         d="m 2546.21,3028.58 -23.03,-12.61 c -0.71,-0.71 -1.37,-1.37 -2.08,-2.08 l -12.61,-23.03 c -2,-3.66 -7.27,-3.66 -9.27,0 l -12.61,23.03 c -0.71,0.71 -1.37,1.37 -2.08,2.08 l -23.03,12.61 c -3.66,2 -3.66,7.27 0,9.27 l 23.03,12.61 c 0.71,0.71 1.37,1.37 2.08,2.08 l 12.61,23.03 c 2,3.66 7.27,3.66 9.27,0 l 12.61,-23.03 c 0.71,-0.71 1.37,-1.37 2.08,-2.08 l 23.03,-12.61 c 3.67,-2 3.67,-7.27 0,-9.27" /><path
         id="path76"
         style="fill:#f2518e;fill-opacity:1;fill-rule:nonzero;stroke:none"
         d="m 2636.78,2145.84 c -15.17,-2.8 -27.53,-11.27 -34.76,-21.06 -6.1,-8.24 -7.89,-16.56 -4.68,-21.68 1.78,-2.84 5.62,-3.99 10.28,-3.06 11.21,2.21 24.36,15.22 28.44,39.26 0.35,2.06 0.62,4.3 0.72,6.54 z m -59.7,4.29 c 0.07,0.94 0.5,1.86 1.28,2.52 19.75,17.04 42.49,23.89 55.3,16.66 4.15,-2.34 8.52,-6.79 10.01,-15.22 6.98,0.4 14.37,-0.28 22.02,-2.33 10.92,-2.93 17.4,-8.43 19.25,-16.35 5.27,-22.58 -31.21,-55.46 -35.38,-59.14 -1.54,-1.34 -3.87,-1.19 -5.21,0.34 -1.35,1.53 -1.2,3.86 0.33,5.21 10.43,9.17 36.74,36.36 33.07,51.91 -1.2,5.14 -5.77,8.71 -13.98,10.9 -6.8,1.83 -13.37,2.44 -19.57,2.09 -0.04,-2.6 -0.32,-5.49 -0.86,-8.65 -4.67,-27.51 -20.59,-42.56 -34.29,-45.28 -7.78,-1.54 -14.5,0.86 -17.97,6.4 -4.94,7.87 -3.06,19.09 5,29.98 8.36,11.3 22.69,21.07 40.23,24.08 -0.81,4.05 -2.67,7.6 -6.27,9.63 -9.83,5.55 -29.98,-1.26 -46.86,-15.82 -1.55,-1.33 -3.88,-1.16 -5.21,0.39 -0.67,0.77 -0.96,1.74 -0.89,2.68" /><path
         id="path78"
         style="fill:#f795ad;fill-opacity:1;fill-rule:nonzero;stroke:none"
         d="m 2172.99,2184.66 c -6.44,2.66 -13.33,2.48 -19.27,0.02 -5.91,-2.44 -10.92,-7.11 -13.6,-13.43 -6.35,2.59 -13.18,2.38 -19.08,-0.06 -5.97,-2.47 -10.99,-7.19 -13.67,-13.62 -5.3,-12.79 0.71,-27.48 13.41,-32.87 0.06,-0.02 0.12,-0.05 0.19,-0.08 l 46.17,-19.18 c 0.06,-0.03 0.12,-0.06 0.19,-0.08 l 0.08,0.19 19.18,46.17 c 0.03,0.06 0.06,0.12 0.08,0.19 5.22,12.78 -0.88,27.43 -13.68,32.75" /><path
         id="path80"
         style="fill:#f2518e;fill-opacity:1;fill-rule:nonzero;stroke:none"
         d="m 2901.65,2110.01 c -0.07,-0.03 -0.14,-0.06 -0.21,-0.09 l -51.29,-21.18 -0.21,-0.08 c -0.03,0.07 -0.06,0.14 -0.09,0.21 l -21.17,51.29 c -0.03,0.07 -0.06,0.14 -0.09,0.21 -5.74,14.19 1.07,30.44 15.27,36.32 7.15,2.93 14.79,2.71 21.41,-0.05 6.55,-2.72 12.07,-7.9 15.03,-14.92 7.06,2.85 14.66,2.59 21.2,-0.13 6.6,-2.74 12.15,-8 15.12,-15.14 5.87,-14.22 -0.84,-30.51 -14.97,-36.44" /><path
         id="path82"
         style="fill:#f2518e;fill-opacity:1;fill-rule:nonzero;stroke:none"
         d="m 3117.7,2165.82 3.11,-17.35 c 0.24,-1.32 1.11,-2.44 2.34,-2.99 l 16.06,-7.27 c 3.08,-1.4 3.22,-5.72 0.24,-7.31 l -15.54,-8.33 c -1.18,-0.64 -1.98,-1.81 -2.13,-3.15 l -1.95,-17.52 c -0.37,-3.36 -4.43,-4.83 -6.87,-2.49 l -12.73,12.21 c -0.96,0.93 -2.33,1.32 -3.64,1.05 l -17.27,-3.56 c -3.31,-0.68 -5.97,2.73 -4.49,5.77 l 7.67,15.87 c 0.59,1.21 0.54,2.63 -0.12,3.79 l -8.73,15.33 c -1.67,2.93 0.75,6.51 4.1,6.05 l 17.47,-2.39 c 1.33,-0.19 2.66,0.3 3.57,1.29 l 11.88,13.03 c 2.27,2.5 6.43,1.3 7.03,-2.03" /><path
         id="path84"
         style="fill:#84cdc6;fill-opacity:1;fill-rule:nonzero;stroke:none"
         d="m 2417.18,2128.41 -13.54,24.58 c -0.23,1.04 -0.45,2.02 -0.68,3.07 l 1.83,28 c 0.29,4.45 -4.45,7.47 -8.36,5.32 l -24.58,-13.54 c -1.04,-0.24 -2.02,-0.46 -3.07,-0.69 l -28,1.84 c -4.45,0.29 -7.47,-4.46 -5.31,-8.37 l 13.53,-24.57 c 0.24,-1.05 0.46,-2.03 0.69,-3.07 l -1.84,-28 c -0.29,-4.46 4.46,-7.47 8.37,-5.32 l 24.57,13.54 c 1.05,0.23 2.03,0.45 3.08,0.68 l 27.99,-1.83 c 4.46,-0.29 7.48,4.45 5.32,8.36" /><path
         id="path86"
         style="fill:#84cdc6;fill-opacity:1;fill-rule:nonzero;stroke:none"
         d="m 3206.97,2232.55 -91.65,71.34 c -6.94,6.94 -16.16,6.94 -20.61,0 l -58.51,-71.34 c -7.87,-12.22 -25.47,-3.41 -27.86,13.88 l -36.45,295.59 c 63.69,9.42 128,21.33 192.83,35.72 l 65.13,-331.31 c 3.83,-17.29 -10.56,-26.1 -22.88,-13.88" /><path
         id="path88"
         style="fill:#f795ad;fill-opacity:1;fill-rule:nonzero;stroke:none"
         d="m 2956.57,2232.55 -83.47,71.34 c -6.32,6.94 -15.43,6.94 -20.61,0 l -66.79,-71.34 c -8.91,-12.22 -25.69,-3.41 -26.62,13.88 l -11.8,272.08 c 65.96,3.93 132.65,10.56 199.97,19.99 l 33.34,-292.07 c 2.28,-17.29 -12.84,-26.1 -24.02,-13.88" /><path
         id="path90"
         style="fill:#efb854;fill-opacity:1;fill-rule:nonzero;stroke:none"
         d="m 2731.43,2246.43 c 0.62,-17.29 -15.32,-26.1 -25.37,-13.88 l -75.08,71.34 c -5.8,6.94 -14.91,6.94 -20.6,0 l -75.19,-71.34 c -10.04,-12.22 -25.99,-3.41 -25.27,13.88 l 9.32,269.18 c 66.9,-2.48 134.53,-1.97 202.77,1.45 l 9.42,-270.63" /><path
         id="path92"
         style="fill:#84cdc6;fill-opacity:1;fill-rule:nonzero;stroke:none"
         d="m 2493.87,2516.64 -11.7,-270.21 c -0.83,-17.29 -17.6,-26.1 -26.61,-13.88 l -66.8,71.34 c -5.07,6.94 -14.29,6.94 -20.6,0 l -83.37,-71.34 c -11.18,-12.22 -26.4,-3.41 -24.13,13.88 l 32.83,288.44 c 66.07,-9.01 132.97,-15.12 200.38,-18.23" /><path
         id="path94"
         style="fill:#f2518e;fill-opacity:1;fill-rule:nonzero;stroke:none"
         d="m 2268.84,2538.5 -35.83,-292.07 c -2.48,-17.29 -20.09,-26.1 -27.96,-13.88 l -58.51,71.34 c -4.45,6.94 -13.56,6.94 -20.6,0 l -91.65,-71.34 c -12.33,-12.22 -26.72,-3.41 -22.79,13.88 l 64.62,329.55 c 63.59,-15.43 127.79,-27.96 192.72,-37.48" /><path
         id="path96"
         style="fill:#333437;fill-opacity:1;fill-rule:nonzero;stroke:none"
         d="m 2603.08,2509.2 c -28.27,0 -56.32,0.51 -84.01,1.54 -8.26,0.2 -16.46,0.6 -24.78,1 -67.62,3.12 -135.18,9.27 -201.45,18.3 -8.34,1.15 -16.57,2.29 -24.79,3.65 -64.24,9.42 -129.22,22.06 -193.08,37.56 -23.17,5.49 -46.99,11.63 -70.78,18.27 -2.59,0.71 -4.11,3.4 -3.38,6 0.72,2.58 3.37,4.1 5.99,3.38 23.67,-6.6 47.37,-12.71 70.45,-18.18 63.58,-15.43 128.27,-28.01 192.3,-37.41 8.23,-1.35 16.36,-2.48 24.61,-3.62 65.98,-8.99 133.24,-15.11 199.94,-18.18 8.9,-0.43 17.03,-0.83 25.27,-1.03 66.13,-2.47 134.21,-1.98 202.4,1.45 8.39,0.41 16.72,0.82 25.14,1.44 66.11,3.94 133.25,10.65 199.66,19.95 l 1.23,0.17 c 7.76,1.08 15.52,2.16 23.37,3.34 63.34,9.38 128.11,21.37 192.49,35.67 20.98,4.51 43.51,9.73 70.93,16.44 2.66,0.64 5.26,-0.97 5.89,-3.58 0.65,-2.61 -0.96,-5.25 -3.57,-5.89 -27.51,-6.72 -50.13,-11.97 -71.16,-16.49 -64.59,-14.34 -129.58,-26.38 -193.14,-35.78 -7.88,-1.18 -15.67,-2.27 -23.46,-3.36 l -1.23,-0.17 c -66.66,-9.33 -134.07,-16.07 -200.36,-20.03 -8.44,-0.62 -16.85,-1.03 -25.25,-1.44 -39.93,-2 -79.79,-3 -119.23,-3" /><path
         id="path98"
         style="fill:#efb854;fill-opacity:1;fill-rule:nonzero;stroke:none"
         d="m 3206.97,2652.73 -91.65,71.34 c -6.94,6.94 -16.16,6.94 -20.61,0 l -58.51,-71.34 c -7.87,-12.21 -25.47,-3.41 -27.86,13.88 l -36.45,295.59 c 63.69,9.42 128,21.33 192.83,35.73 l 65.13,-331.32 c 3.83,-17.29 -10.56,-26.09 -22.88,-13.88" /><path
         id="path100"
         style="fill:#f795ad;fill-opacity:1;fill-rule:nonzero;stroke:none"
         d="m 2956.57,2652.73 -83.47,71.34 c -6.32,6.94 -15.43,6.94 -20.61,0 l -66.79,-71.34 c -8.91,-12.21 -25.69,-3.41 -26.62,13.88 l -11.8,272.08 c 65.96,3.94 132.65,10.56 199.97,19.99 l 33.34,-292.07 c 2.28,-17.29 -12.84,-26.09 -24.02,-13.88" /><path
         id="path102"
         style="fill:#84cdc6;fill-opacity:1;fill-rule:nonzero;stroke:none"
         d="m 2731.43,2666.61 c 0.62,-17.29 -15.32,-26.09 -25.37,-13.88 l -75.08,71.34 c -5.8,6.94 -14.91,6.94 -20.6,0 l -75.19,-71.34 c -10.04,-12.21 -25.99,-3.41 -25.27,13.88 l 9.32,269.18 c 66.9,-2.49 134.53,-1.97 202.77,1.45 l 9.42,-270.63" /><path
         id="path104"
         style="fill:#efb854;fill-opacity:1;fill-rule:nonzero;stroke:none"
         d="m 2493.87,2936.82 -11.7,-270.21 c -0.83,-17.29 -17.6,-26.09 -26.61,-13.88 l -66.8,71.34 c -5.07,6.94 -14.29,6.94 -20.6,0 l -83.37,-71.34 c -11.18,-12.21 -26.4,-3.41 -24.13,13.88 l 32.83,288.44 c 66.07,-9.01 132.97,-15.12 200.38,-18.23" /><path
         id="path106"
         style="fill:#f2518e;fill-opacity:1;fill-rule:nonzero;stroke:none"
         d="m 2268.84,2958.68 -35.83,-292.07 c -2.48,-17.29 -20.09,-26.09 -27.96,-13.88 l -58.51,71.34 c -4.45,6.94 -13.56,6.94 -20.6,0 l -91.65,-71.34 c -12.33,-12.21 -26.72,-3.41 -22.79,13.88 l 64.62,329.55 c 63.59,-15.43 127.79,-27.96 192.72,-37.48" /><path
         id="path108"
         style="fill:#333437;fill-opacity:1;fill-rule:nonzero;stroke:none"
         d="m 2603.08,2929.38 c -28.27,0 -56.32,0.51 -84.01,1.54 -8.26,0.2 -16.46,0.6 -24.78,1.01 -67.62,3.12 -135.18,9.26 -201.45,18.29 -8.34,1.15 -16.57,2.3 -24.79,3.65 -64.24,9.42 -129.22,22.06 -193.08,37.56 -23.17,5.49 -46.99,11.64 -70.78,18.27 -2.59,0.71 -4.11,3.4 -3.38,6 0.72,2.58 3.37,4.1 5.99,3.38 23.67,-6.6 47.37,-12.71 70.45,-18.18 63.58,-15.43 128.27,-28.01 192.3,-37.41 8.23,-1.35 16.36,-2.48 24.61,-3.61 65.98,-9 133.24,-15.11 199.94,-18.19 8.9,-0.43 17.03,-0.83 25.27,-1.03 66.13,-2.47 134.21,-1.98 202.4,1.45 8.39,0.41 16.72,0.82 25.14,1.44 66.11,3.94 133.25,10.65 199.66,19.95 l 1.23,0.17 c 7.76,1.08 15.52,2.17 23.37,3.35 63.34,9.37 128.11,21.36 192.49,35.66 20.98,4.51 43.51,9.73 70.93,16.44 2.66,0.64 5.26,-0.96 5.89,-3.58 0.65,-2.61 -0.96,-5.24 -3.57,-5.89 -27.51,-6.72 -50.13,-11.97 -71.16,-16.49 -64.59,-14.34 -129.58,-26.38 -193.14,-35.78 -7.88,-1.18 -15.67,-2.27 -23.46,-3.36 l -1.23,-0.17 c -66.66,-9.33 -134.07,-16.07 -200.36,-20.02 -8.44,-0.63 -16.85,-1.04 -25.25,-1.45 -39.93,-2 -79.79,-3 -119.23,-3" /><path
         id="path110"
         style="fill:#84cdc6;fill-opacity:1;fill-rule:nonzero;stroke:none"
         d="m 2896.77,1319.47 c -1.95,0 -3.88,-0.11 -5.72,-0.29 -26.78,-2.53 -42.15,-15.93 -45.51,-28.09 -1.39,-5.05 -0.45,-9.37 2.54,-11.56 5.36,-3.94 14.66,-2.66 24.24,3.39 11.34,7.16 21.67,20.06 25.98,36.52 -0.51,0.02 -1.02,0.03 -1.53,0.03 z m 1.4,-66.04 c -1.04,0 -2.09,0.39 -2.88,1.19 -1.59,1.59 -1.59,4.17 0,5.76 17.39,17.38 26.51,38.99 21.2,50.26 -1.94,4.12 -5.68,6.46 -10.08,7.68 -4.73,-19.04 -16.65,-34.02 -29.75,-42.29 -12.65,-7.98 -25.15,-9.12 -33.4,-3.07 -5.81,4.27 -7.9,11.86 -5.57,20.29 4.11,14.85 21.95,31.14 52.6,34.04 3.54,0.34 6.75,0.4 9.59,0.24 0.89,6.8 0.74,14.07 -0.71,21.7 -1.76,9.2 -5.3,14.52 -10.86,16.26 -16.78,5.22 -48.86,-21.42 -59.78,-32.15 -1.62,-1.58 -4.19,-1.56 -5.76,0.05 -1.58,1.6 -1.55,4.18 0.05,5.76 4.38,4.29 43.53,41.74 67.92,34.11 8.56,-2.68 14.09,-10.25 16.43,-22.5 1.63,-8.58 1.78,-16.76 0.77,-24.41 9.15,-2.33 13.68,-7.5 15.92,-12.25 6.91,-14.68 -2.47,-39.14 -22.81,-59.48 -0.8,-0.8 -1.84,-1.19 -2.88,-1.19" /><path
         id="path112"
         style="fill:#84cdc6;fill-opacity:1;fill-rule:nonzero;stroke:none"
         d="m 2589.97,1355.64 -23.32,-12.77 c -1.04,-0.56 -1.89,-1.42 -2.46,-2.45 l -12.77,-23.33 c -2.36,-4.31 -8.56,-4.31 -10.93,0 l -12.76,23.33 c -0.57,1.03 -1.42,1.89 -2.46,2.45 l -23.32,12.77 c -4.32,2.36 -4.32,8.57 0,10.93 l 23.32,12.77 c 1.04,0.57 1.89,1.42 2.46,2.45 l 12.76,23.33 c 2.37,4.31 8.57,4.31 10.93,0 l 12.77,-23.33 c 0.57,-1.03 1.42,-1.88 2.46,-2.45 l 23.32,-12.77 c 4.32,-2.36 4.32,-8.57 0,-10.93" /><path
         id="path114"
         style="fill:#f2518e;fill-opacity:1;fill-rule:nonzero;stroke:none"
         d="m 2627.34,462.93 c -182.31,-102.11 -385,-144.571 -605.76,-134.098 -13.26,0.629 -22.92,12.918 -20.61,26 l 137.75,780.708 c 3.43,19.41 28.6,25.01 39.93,8.87 l 455.8,-649.5 c 7.48,-10.668 4.26,-25.609 -7.11,-31.98" /><path
         id="path116"
         style="fill:#f2518e;fill-opacity:1;fill-rule:nonzero;stroke:none"
         d="m 2627.3,462.93 c -42.29,-23.598 -85.59,-44.149 -129.94,-61.442 -53.2,-20.777 -107.93,-37.09 -164.08,-49.019 -99.32,-21.199 -203.32,-28.778 -311.66,-23.68 -13.26,0.66 -22.98,12.93 -20.64,26.02 l 137.77,780.731 c 3.44,19.45 28.54,25.03 39.89,8.87 l 455.77,-649.519 c 7.51,-10.68 4.27,-25.61 -7.11,-31.961" /><path
         id="path118"
         style="fill:#efb854;fill-opacity:1;fill-rule:nonzero;stroke:none"
         d="m 2233.75,1164.66 c 1.6,-7.21 -17.74,-15.63 -18.41,-22.61 -0.69,-7.23 16.62,-19.17 13.78,-25.69 -2.86,-6.59 -23.44,-2.07 -28.19,-7.46 -4.71,-5.33 2.33,-25.21 -3.93,-28.9 -6.04,-3.56 -19.98,12.16 -27.2,10.56 -7.21,-1.61 -13.19,-21.75 -20.17,-21.08 -7.23,0.69 -9.27,21.68 -15.79,24.51 -6.59,2.87 -23.32,-9.93 -28.7,-5.18 -5.34,4.71 5.29,22.85 1.6,29.11 -3.56,6.04 -24.64,5.48 -26.25,12.69 -1.6,7.21 17.74,15.63 18.41,22.61 0.69,7.23 -16.62,19.17 -13.78,25.69 2.87,6.59 23.44,2.07 28.19,7.46 4.71,5.33 -2.33,25.21 3.93,28.9 6.04,3.56 19.99,-12.16 27.2,-10.56 7.21,1.6 13.19,21.75 20.17,21.08 7.23,-0.69 9.28,-21.68 15.8,-24.52 6.58,-2.86 23.31,9.94 28.7,5.19 5.33,-4.71 -5.3,-22.86 -1.61,-29.11 3.56,-6.04 24.65,-5.48 26.25,-12.69" /><path
         id="path120"
         style="fill:#efb854;fill-opacity:1;fill-rule:nonzero;stroke:none"
         d="m 2302.4,968.09 c -68.81,-7.531 -131.76,1.32 -188.51,26.531 l 7.64,43.329 c 46.02,-22.67 96.73,-32.49 152.6,-29.7 l 28.27,-40.16" /><path
         id="path122"
         style="fill:#efb854;fill-opacity:1;fill-rule:nonzero;stroke:none"
         d="m 2388.96,844.602 c -9.15,-2.582 -18.27,-4.832 -27.23,-6.821 -102.16,-22.699 -192.43,-12.371 -270.08,30.699 l 7.86,44.801 c 73.99,-46.293 161.23,-56.742 263.38,-31.531 l 26.07,-37.148" /><path
         id="path124"
         style="fill:#efb854;fill-opacity:1;fill-rule:nonzero;stroke:none"
         d="m 2494.29,694.672 c -11.97,-3.203 -23.77,-6.152 -35.43,-8.742 -148.82,-33.071 -279.37,-15.078 -389.94,53.679 l 7.95,45.371 c 108.95,-74.261 238.32,-91.851 391.25,-53.171 l 26.17,-37.137" /><path
         id="path126"
         style="fill:#efb854;fill-opacity:1;fill-rule:nonzero;stroke:none"
         d="m 2592.03,555.301 c -27.05,-8.629 -53.53,-15.821 -79.57,-21.61 -179.85,-39.961 -335.86,-13.64 -466,78.75 l 8.28,46.86 c 138.41,-107.492 307.16,-129.66 511.67,-67.391 l 25.62,-36.609" /><path
         id="path128"
         style="fill:#efb854;fill-opacity:1;fill-rule:nonzero;stroke:none"
         d="m 2497.36,401.488 c -53.2,-20.777 -107.93,-37.09 -164.08,-49.019 -119.93,8.101 -224.33,46.113 -312.61,113.922 l 8.44,47.558 c 121.28,-102.668 276.07,-139.75 468.25,-112.461" /><path
         id="path130"
         style="fill:#f0357e;fill-opacity:1;fill-rule:nonzero;stroke:none"
         d="m 3240.33,353.48 -123.65,783.07 c -3.08,19.47 -28.15,25.52 -39.76,9.59 L 2609.47,504.969 c -7.67,-10.528 -4.72,-25.528 6.53,-32.098 180.45,-105.383 382.33,-151.5 603.25,-145.012 13.27,0.391 23.15,12.5 21.08,25.621" /><path
         id="path132"
         style="fill:#c61f6e;fill-opacity:1;fill-rule:nonzero;stroke:none"
         d="m 3022.19,1173.66 c -1.73,-7.18 17.45,-15.94 17.99,-22.93 0.57,-7.24 -16.96,-18.87 -14.24,-25.44 2.75,-6.64 23.4,-2.5 28.06,-7.97 4.61,-5.41 -2.79,-25.16 3.4,-28.96 5.98,-3.67 20.21,11.79 27.39,10.06 7.18,-1.73 12.8,-21.98 19.79,-21.44 7.24,0.56 9.66,21.51 16.23,24.23 6.64,2.75 23.13,-10.36 28.6,-5.7 5.42,4.61 -4.88,22.94 -1.08,29.13 3.67,5.98 24.74,5.03 26.48,12.21 1.73,7.19 -17.46,15.95 -18,22.94 -0.56,7.24 16.96,18.87 14.24,25.44 -2.75,6.64 -23.4,2.5 -28.05,7.97 -4.61,5.41 2.78,25.16 -3.41,28.96 -5.97,3.67 -20.2,-11.79 -27.38,-10.06 -7.19,1.73 -12.8,21.98 -19.79,21.44 -7.24,-0.56 -9.66,-21.51 -16.24,-24.23 -6.63,-2.75 -23.13,10.36 -28.6,5.7 -5.41,-4.61 4.88,-22.95 1.08,-29.14 -3.67,-5.97 -24.74,-5.02 -26.47,-12.21" /><path
         id="path134"
         style="fill:#fde59e;fill-opacity:1;fill-rule:nonzero;stroke:none"
         d="m 3132.13,1038.69 -3.22,20.31 c -35.13,-4.14 -65.53,-29.62 -74.31,-66.031 -11.25,-46.66 17.55,-93.778 64.22,-105.028 12.65,-3.05 25.36,-3.16 37.24,-0.75 l -23.93,151.499" /><path
         id="path136"
         style="fill:#fde59e;fill-opacity:1;fill-rule:nonzero;stroke:none"
         d="m 2675.52,595.621 c 10.59,-9.801 23.66,-17.012 38.6,-20.621 46.77,-11.281 93.78,17.551 105.03,64.219 9.33,38.679 -8.74,77.5 -41.68,96.09 l -24.23,-33.118 -73.96,-101.453 -3.76,-5.117" /><path
         id="path138"
         style="fill:#fde59e;fill-opacity:1;fill-rule:nonzero;stroke:none"
         d="m 2724.84,433.809 c -1.23,-5.079 -2.01,-10.161 -2.23,-15.149 7.32,-3.301 14.8,-6.43 22.28,-9.551 44.22,-18.23 89.75,-33.277 136.14,-45.23 6.01,8.531 10.46,18.332 13.06,29.113 11.28,46.77 -17.44,93.758 -64.21,105.039 -46.67,11.258 -93.76,-17.441 -105.04,-64.222" /><path
         id="path140"
         style="fill:#fde59e;fill-opacity:1;fill-rule:nonzero;stroke:none"
         d="m 2828.13,804.738 c 1.11,-0.379 2.26,-0.648 3.4,-0.929 44.18,-10.661 88.61,16.601 99.24,60.671 5.63,23.34 0.73,46.692 -11.72,65.161 l -90.92,-124.903" /><path
         id="path142"
         style="fill:#fde59e;fill-opacity:1;fill-rule:nonzero;stroke:none"
         d="m 3107.25,654.34 c -10.63,-44.07 16.6,-88.61 60.68,-99.238 13.79,-3.332 27.6,-2.93 40.49,0.437 l -25.54,161.66 c -35.35,-1.898 -66.9,-26.66 -75.63,-62.859" /><path
         id="path144"
         style="fill:#fde59e;fill-opacity:1;fill-rule:nonzero;stroke:none"
         d="m 2935.75,757.969 c -7.84,-32.469 12.14,-65.149 44.62,-72.981 32.47,-7.84 65.15,12.141 72.98,44.621 7.84,32.473 -12.14,65.153 -44.62,72.981 -32.47,7.84 -65.15,-12.141 -72.98,-44.621" /><path
         id="path146"
         style="fill:#fde59e;fill-opacity:1;fill-rule:nonzero;stroke:none"
         d="m 3123.18,369.559 c -3.43,-14.2 -2.28,-28.528 2.56,-41.219 30.76,-1.27 62.01,-1.352 93.5,-0.488 13.27,0.418 23.21,12.507 21.1,25.636 l -9.01,57.262 c -6.85,4.832 -14.74,8.492 -23.45,10.59 -37.65,9.082 -75.6,-14.031 -84.7,-51.781" /><path
         id="path148"
         style="fill:#fde59e;fill-opacity:1;fill-rule:nonzero;stroke:none"
         d="m 2955.72,539.219 c -6.51,-27 10.09,-54.149 37.08,-60.66 26.99,-6.508 54.15,10.089 60.66,37.082 6.51,26.988 -10.09,54.148 -37.08,60.66 -26.99,6.508 -54.15,-10.09 -60.66,-37.082" /><path
         id="path150"
         style="fill:#c61f6e;fill-opacity:1;fill-rule:nonzero;stroke:none"
         d="m 2615.14,1114.04 c -6.32,11.05 -10.42,21.69 -14.09,33.11 -3.55,11.31 -6.19,22.93 -8.05,34.72 -1.62,11.79 -2.87,23.77 -2.89,35.77 -0.27,12.03 0.53,24.05 1.69,36.1 l 41.76,-8.61 c -3.01,-9.92 -5.8,-20.01 -7.64,-30.3 -2.09,-10.28 -3.08,-20.72 -3.77,-31.26 -0.46,-10.53 -0.22,-21.15 0.87,-31.71 1.09,-10.41 3.13,-21.42 6.17,-30.7 l -14.05,-7.12" /><path
         id="path152"
         style="fill:#c61f6e;fill-opacity:1;fill-rule:nonzero;stroke:none"
         d="m 2613.2,1114.03 c -12.25,3.46 -22.63,8.19 -33.24,13.77 -10.46,5.59 -20.48,12.04 -30.06,19.15 -9.42,7.28 -18.7,14.96 -27.12,23.51 -8.61,8.4 -16.46,17.54 -24.07,26.96 l 35.84,23.09 c 4.8,-9.18 9.87,-18.35 15.76,-26.98 5.71,-8.8 12.31,-16.95 19.2,-24.96 7.05,-7.83 14.65,-15.25 22.83,-22.02 8.06,-6.67 17.23,-13.1 25.91,-17.6 l -5.05,-14.92" /><path
         id="path154"
         style="fill:#c61f6e;fill-opacity:1;fill-rule:nonzero;stroke:none"
         d="m 2615.74,1114.04 c 12.22,3.56 22.57,8.38 33.13,14.05 10.41,5.67 20.38,12.2 29.91,19.39 9.35,7.36 18.56,15.11 26.91,23.74 8.55,8.47 16.32,17.67 23.86,27.15 l -36.03,22.79 c -4.73,-9.22 -9.72,-18.42 -15.54,-27.1 -5.64,-8.85 -12.18,-17.05 -19,-25.12 -6.98,-7.89 -14.52,-15.37 -22.65,-22.21 -8,-6.74 -17.12,-13.24 -25.75,-17.81 l 5.16,-14.88" /><path
         id="path156"
         style="fill:#84cdc6;fill-opacity:1;fill-rule:nonzero;stroke:none"
         d="m 2960.46,285.801 c -22.25,29.051 -166.14,50.918 -340.08,50.199 -11.56,-0.039 -23.02,-0.199 -34.36,-0.359 -32.47,-0.801 -63.61,-2.262 -92.74,-4.379 C 2380.32,323.012 2297.1,304.648 2280.73,283 l 289.16,756.67 9.35,24.51 26.63,69.39 c 3.96,10.25 18.42,10.31 22.46,0.1 l 27.09,-69.29 305.04,-778.579" /><path
         id="path158"
         style="fill:#6cbfb5;fill-opacity:1;fill-rule:nonzero;stroke:none"
         d="m 2963.61,277.922 c 0.13,-32.922 -153.34,-60.242 -342.74,-61.024 -189.39,-0.777 -343.09,25.282 -343.22,58.204 -0.01,2.66 0.98,5.339 3.08,7.898 22.01,29.23 165.71,52.289 339.65,53 173.94,0.719 317.83,-21.148 340.08,-50.199 2.12,-2.551 3.13,-5.211 3.15,-7.879" /><path
         id="path160"
         style="fill:#c61f6e;fill-opacity:1;fill-rule:nonzero;stroke:none"
         d="m 2596.5,976.609 c -1.77,-1.668 -2.54,-4.121 -2.08,-6.461 l 7.63,-43.558 c 1.02,-5.891 -5.08,-10.36 -10.43,-7.61 l -39.23,20.418 c -2.11,1.102 -4.67,1.09 -6.78,-0.027 l -17.53,-9.301 41.81,109.49 4.82,-9.54 c 1.01,-2.22 3.13,-3.66 5.46,-3.98 l 43.74,-6.16 c 6.01,-0.87 8.37,-8.09 4.05,-12.33 l -31.46,-30.941" /><path
         id="path162"
         style="fill:#c61f6e;fill-opacity:1;fill-rule:nonzero;stroke:none"
         d="m 2924.04,378.738 -18.39,9.602 c -2.11,1.101 -4.67,1.09 -6.78,-0.031 l -39.06,-20.739 c -5.22,-2.8 -11.46,1.621 -10.49,7.52 l 7.27,43.629 c 0.44,2.34 -0.35,4.781 -2.02,6.441 l -31.83,30.68 c -4.35,4.211 -1.93,11.441 3.96,12.359 l 43.79,6.52 c 2.33,0.34 4.33,1.793 5.32,4.019 l 5.07,10.262 43.16,-110.262" /><path
         id="path164"
         style="fill:#c61f6e;fill-opacity:1;fill-rule:nonzero;stroke:none"
         d="m 2778.83,749.48 -16.5,8.61 c -2.11,1.109 -4.67,1.09 -6.78,-0.031 l -39.06,-20.727 c -5.22,-2.801 -11.46,1.617 -10.49,7.52 l 7.27,43.617 c 0.44,2.34 -0.35,4.781 -2.02,6.453 l -31.83,30.668 c -4.35,4.211 -1.93,11.449 3.96,12.359 l 43.79,6.52 c 2.33,0.34 4.33,1.801 5.32,4.031 l 4.19,8.582 42.15,-107.602" /><path
         id="path166"
         style="fill:#c61f6e;fill-opacity:1;fill-rule:nonzero;stroke:none"
         d="m 2592.24,757.238 14.89,-29.859 c 0.8,-1.609 2.34,-2.719 4.12,-2.969 l 33.04,-4.66 c 4.48,-0.629 6.28,-6.121 3.06,-9.289 l -23.8,-23.391 c -1.28,-1.261 -1.86,-3.058 -1.55,-4.832 l 5.78,-32.867 c 0.78,-4.449 -3.88,-7.859 -7.89,-5.781 l -29.6,15.41 c -1.59,0.832 -3.49,0.82 -5.07,-0.02 l -29.48,-15.648 c -3.99,-2.121 -8.68,1.258 -7.93,5.707 l 5.5,32.922 c 0.3,1.769 -0.29,3.57 -1.58,4.82 l -24,23.188 c -3.24,3.14 -1.48,8.652 2.99,9.312 l 33,4.938 c 1.78,0.261 3.31,1.39 4.09,3 l 14.65,29.98 c 1.98,4.063 7.76,4.09 9.78,0.039" /><path
         id="path168"
         style="fill:#c61f6e;fill-opacity:1;fill-rule:nonzero;stroke:none"
         d="m 2618.09,378.809 -31.12,-30.598 c -1.78,-1.563 -2.43,-4.012 -2.09,-6.231 l 1.14,-6.339 c -32.47,-0.801 -63.61,-2.262 -92.74,-4.379 l 1.74,10.347 c 0.44,2.223 -0.35,4.672 -2.03,6.219 l -31.37,30.344 c -4.25,4.207 -1.94,11.34 3.84,12.25 l 43.23,6.398 c 2.34,0.352 4.33,1.801 5.33,3.918 l 19.19,39.231 c 2.53,5.34 10.09,5.383 12.79,0.051 l 19.4,-39.071 c 1.12,-2.109 3.12,-3.551 5.46,-3.867 l 43.18,-6.051 c 5.9,-0.871 8.26,-7.972 4.05,-12.222" /><path
         id="path170"
         style="fill:#c61f6e;fill-opacity:1;fill-rule:nonzero;stroke:none"
         d="m 2451.55,581.09 c -1.33,-1.219 -1.88,-3.008 -1.54,-4.781 l 5.7,-32.899 c 0.8,-4.449 -3.86,-7.91 -7.87,-5.82 l -29.54,15.449 c -1.67,0.77 -3.56,0.77 -5.11,-0.019 l -29.41,-15.688 c -2,-1.012 -4.11,-0.793 -5.68,0.309 l 42.81,112.168 14.24,-28.411 c 0.78,-1.558 2.34,-2.66 4.12,-2.988 l 33.05,-4.64 c 4.46,-0.649 6.26,-6.098 3.04,-9.219 l -23.81,-23.461" /><path
         id="path172"
         style="fill:#c61f6e;fill-opacity:1;fill-rule:nonzero;stroke:none"
         d="m 2714.84,582.219 11.81,-23.68 c 0.63,-1.269 1.85,-2.148 3.26,-2.348 l 26.19,-3.691 c 3.55,-0.5 4.98,-4.852 2.43,-7.359 l -18.87,-18.539 c -1.01,-1 -1.47,-2.43 -1.22,-3.832 l 4.57,-26.059 c 0.62,-3.52 -3.07,-6.231 -6.25,-4.582 l -23.46,12.223 c -1.26,0.648 -2.77,0.648 -4.02,-0.02 l -23.36,-12.41 c -3.17,-1.684 -6.88,1 -6.29,4.527 l 4.36,26.09 c 0.24,1.41 -0.23,2.832 -1.26,3.82 l -19.01,18.391 c -2.58,2.488 -1.18,6.852 2.36,7.379 l 26.16,3.91 c 1.41,0.211 2.62,1.102 3.25,2.383 l 11.6,23.758 c 1.58,3.218 6.16,3.242 7.75,0.039" /><path
         id="path174"
         style="fill:#c61f6e;fill-opacity:1;fill-rule:nonzero;stroke:none"
         d="m 2655.42,1064.38 c -11.21,-6.38 -24.2,-10 -37.99,-10.05 -13.91,-0.06 -26.93,3.44 -38.19,9.85 l 26.63,69.39 c 3.96,10.25 18.42,10.31 22.46,0.1 l 27.09,-69.29" /><path
         id="path176"
         style="fill:#f0357e;fill-opacity:1;fill-rule:nonzero;stroke:none"
         d="m 2342.47,1325.08 c -1.95,0 -3.88,-0.11 -5.72,-0.28 -26.78,-2.54 -42.15,-15.94 -45.51,-28.1 -1.39,-5.05 -0.44,-9.37 2.54,-11.56 5.36,-3.94 14.66,-2.66 24.24,3.39 11.35,7.16 21.67,20.07 25.98,36.52 -0.51,0.02 -1.02,0.03 -1.53,0.03 z m 1.4,-66.04 c -1.04,0 -2.09,0.4 -2.88,1.19 -1.59,1.59 -1.59,4.17 0,5.76 17.39,17.39 26.51,38.99 21.2,50.26 -1.94,4.13 -5.68,6.46 -10.08,7.68 -4.73,-19.04 -16.65,-34.01 -29.75,-42.28 -12.65,-7.99 -25.15,-9.13 -33.4,-3.08 -5.81,4.27 -7.9,11.86 -5.57,20.29 4.11,14.86 21.96,31.14 52.6,34.04 3.54,0.34 6.75,0.4 9.59,0.24 0.89,6.8 0.74,14.07 -0.71,21.7 -1.76,9.21 -5.3,14.52 -10.86,16.27 -16.78,5.22 -48.86,-21.43 -59.78,-32.16 -1.62,-1.58 -4.19,-1.56 -5.76,0.05 -1.58,1.61 -1.55,4.19 0.05,5.76 4.38,4.29 43.53,41.74 67.92,34.11 8.56,-2.68 14.09,-10.25 16.43,-22.5 1.63,-8.58 1.78,-16.76 0.77,-24.41 9.15,-2.33 13.68,-7.49 15.92,-12.24 6.91,-14.69 -2.47,-39.15 -22.81,-59.49 -0.8,-0.79 -1.84,-1.19 -2.88,-1.19" /><path
         id="path178"
         style="fill:#f2518e;fill-opacity:1;fill-rule:nonzero;stroke:none"
         d="m 2464.4,1115.28 -33.66,-18.43 c -1.5,-0.82 -2.73,-2.05 -3.55,-3.54 l -18.42,-33.66 c -3.41,-6.23 -12.36,-6.23 -15.78,0 l -18.42,33.66 c -0.82,1.49 -2.05,2.72 -3.55,3.54 l -33.65,18.43 c -6.23,3.41 -6.23,12.36 0,15.77 l 33.66,18.43 c 1.49,0.81 2.72,2.04 3.54,3.54 l 18.42,33.66 c 3.42,6.23 12.37,6.23 15.78,0 l 18.42,-33.66 c 0.82,-1.5 2.05,-2.73 3.55,-3.55 l 33.66,-18.42 c 6.23,-3.41 6.23,-12.36 0,-15.77" /><path
         id="path180"
         style="fill:#efb854;fill-opacity:1;fill-rule:nonzero;stroke:none"
         d="m 2880.61,1070.08 c 0,-27.66 -22.43,-50.08 -50.09,-50.08 -27.66,0 -50.08,22.42 -50.08,50.08 0,27.66 22.42,50.09 50.08,50.09 27.66,0 50.09,-22.43 50.09,-50.09" /><path
         id="path182"
         style="fill:#84cdc6;fill-opacity:1;fill-rule:nonzero;stroke:none"
         d="m 1045.98,1360.65 c 8.43,-13.01 21.05,-21.22 32.91,-24.18 9.99,-2.49 18.41,-0.95 21.93,4 1.95,2.74 1.54,6.75 -1.11,10.72 -6.37,9.56 -23.5,16.76 -47.39,11.31 -2.05,-0.47 -4.22,-1.09 -6.34,-1.85 z m 18.97,-57.07 c -0.9,-0.29 -1.91,-0.25 -2.83,0.21 -23.41,11.79 -38.51,30.27 -36.73,44.94 0.58,4.75 3.03,10.52 10.28,15.14 -3.06,6.33 -5.27,13.45 -6.3,21.34 -1.48,11.26 1.13,19.39 7.78,24.15 18.92,13.58 63.48,-7.64 68.49,-10.1 1.84,-0.91 2.59,-3.13 1.69,-4.97 -0.9,-1.83 -3.12,-2.6 -4.96,-1.69 -12.52,6.15 -47.88,20.12 -60.9,10.74 -4.31,-3.09 -5.87,-8.71 -4.75,-17.17 0.92,-7.02 2.88,-13.35 5.59,-18.98 2.42,0.97 5.22,1.82 8.36,2.53 27.33,6.25 47.42,-2.74 55.22,-14.42 4.41,-6.63 4.78,-13.79 0.97,-19.14 -5.41,-7.61 -16.55,-10.17 -29.76,-6.88 -13.7,3.41 -28.28,12.96 -37.82,28.08 -3.45,-2.31 -6.02,-5.4 -6.52,-9.52 -1.37,-11.26 12.69,-27.35 32.7,-37.42 1.83,-0.92 2.56,-3.15 1.64,-4.98 -0.46,-0.92 -1.25,-1.56 -2.15,-1.86" /><path
         id="path184"
         style="fill:#f0357e;fill-opacity:1;fill-rule:nonzero;stroke:none"
         d="m 599.168,1384.13 c -14.617,5.16 -29.629,3.96 -40.832,-0.94 -9.434,-4.13 -15.164,-10.48 -14.926,-16.54 0.125,-3.37 2.899,-6.3 7.418,-7.82 10.879,-3.69 28.848,1.06 44.438,19.96 1.336,1.63 2.687,3.44 3.902,5.34 z m -49.859,33.62 c 0.531,0.79 1.363,1.37 2.371,1.56 25.734,4.96 48.976,-0.46 56.519,-13.17 2.442,-4.12 4.02,-10.18 1.102,-18.27 6.281,-3.15 12.379,-7.44 18.012,-13.05 8.046,-8.02 10.937,-16.06 8.582,-23.89 -6.707,-22.3 -54.95,-32.69 -60.43,-33.8 -2.004,-0.4 -3.957,0.9 -4.363,2.9 -0.411,2 0.882,3.96 2.898,4.37 13.672,2.77 50.203,13.29 54.789,28.67 1.531,5.08 -0.664,10.47 -6.715,16.49 -5.008,5 -10.426,8.83 -16.004,11.63 -1.336,-2.25 -3.023,-4.63 -5.082,-7.11 -17.84,-21.63 -39.242,-26.78 -52.543,-22.28 -7.547,2.56 -12.203,8 -12.453,14.57 -0.355,9.33 6.899,18.16 19.375,23.62 12.934,5.65 30.317,6.99 47.094,0.83 1.328,3.94 1.48,7.96 -0.641,11.53 -5.789,9.75 -26.746,13.91 -48.742,9.68 -2.012,-0.39 -3.953,0.93 -4.34,2.94 -0.195,1.01 0.039,2 0.571,2.78" /><path
         id="path186"
         style="fill:#f2518e;fill-opacity:1;fill-rule:nonzero;stroke:none"
         d="m 1241.15,1405.61 2.6,-14.46 c 0.2,-1.1 0.92,-2.04 1.94,-2.5 l 13.39,-6.05 c 2.56,-1.17 2.68,-4.77 0.2,-6.1 l -12.95,-6.93 c -0.98,-0.53 -1.65,-1.51 -1.77,-2.62 l -1.63,-14.6 c -0.31,-2.8 -3.69,-4.03 -5.73,-2.08 l -10.6,10.17 c -0.8,0.78 -1.94,1.1 -3.04,0.88 l -14.38,-2.97 c -2.76,-0.57 -4.97,2.27 -3.75,4.81 l 6.4,13.22 c 0.49,1.01 0.45,2.19 -0.11,3.16 l -7.26,12.77 c -1.4,2.45 0.62,5.43 3.41,5.05 l 14.56,-2 c 1.1,-0.15 2.22,0.25 2.97,1.08 l 9.9,10.86 c 1.89,2.08 5.35,1.08 5.85,-1.69" /><path
         id="path188"
         style="fill:#efb854;fill-opacity:1;fill-rule:nonzero;stroke:none"
         d="m 426.879,1356.22 c 0,-12.5 -10.133,-22.63 -22.637,-22.63 -12.504,0 -22.64,10.13 -22.64,22.63 0,12.51 10.136,22.64 22.64,22.64 12.504,0 22.637,-10.13 22.637,-22.64" /><path
         id="path190"
         style="fill:#efb854;fill-opacity:1;fill-rule:nonzero;stroke:none"
         d="m 659.328,986.07 c 0,-12.511 -10.137,-22.64 -22.64,-22.64 -12.504,0 -22.637,10.129 -22.637,22.64 0,12.5 10.133,22.63 22.637,22.63 12.503,0 22.64,-10.13 22.64,-22.63" /><path
         id="path192"
         style="fill:#efb854;fill-opacity:1;fill-rule:nonzero;stroke:none"
         d="m 1044.17,999.988 c 0,-8.886 -7.21,-16.09 -16.1,-16.09 -8.89,0 -16.09,7.204 -16.09,16.09 0,8.892 7.2,16.092 16.09,16.092 8.89,0 16.1,-7.2 16.1,-16.092" /><path
         id="path194"
         style="fill:#84cdc6;fill-opacity:1;fill-rule:nonzero;stroke:none"
         d="m 1129.28,1153.36 c 0,-16.55 -13.42,-29.97 -29.97,-29.97 -16.56,0 -29.97,13.42 -29.97,29.97 0,16.55 13.41,29.97 29.97,29.97 16.55,0 29.97,-13.42 29.97,-29.97" /><path
         id="path196"
         style="fill:#84cdc6;fill-opacity:1;fill-rule:nonzero;stroke:none"
         d="m 641.961,1200.98 -23.27,-12.74 c -0.714,-0.71 -1.386,-1.38 -2.101,-2.1 l -12.738,-23.27 c -2.028,-3.7 -7.344,-3.7 -9.372,0 l -12.734,23.27 c -0.719,0.72 -1.391,1.39 -2.105,2.1 l -23.266,12.74 c -3.703,2.03 -3.703,7.35 0,9.37 l 23.266,12.74 c 0.714,0.71 1.386,1.39 2.105,2.1 l 12.734,23.27 c 2.028,3.7 7.344,3.7 9.372,0 l 12.738,-23.27 c 0.715,-0.71 1.387,-1.39 2.101,-2.1 l 23.27,-12.74 c 3.699,-2.02 3.699,-7.34 0,-9.37" /><path
         id="path198"
         style="fill:#efb854;fill-opacity:1;fill-rule:nonzero;stroke:none"
         d="m 851.918,1317.62 c -1.258,-2.39 -3.789,-4.03 -6.699,-3.99 -4.125,0.06 -7.414,3.44 -7.36,7.55 l 1.43,104.08 c 0.125,4.12 3.438,7.4 7.559,7.36 4.125,-0.06 7.414,-3.45 7.359,-7.56 l -1.43,-104.07 c -0.027,-1.22 -0.332,-2.36 -0.859,-3.37" /><path
         id="path200"
         style="fill:#efb854;fill-opacity:1;fill-rule:nonzero;stroke:none"
         d="m 798.293,1318.35 c -0.852,-1.63 -2.297,-2.94 -4.164,-3.59 -3.879,-1.35 -8.125,0.71 -9.481,4.61 l -27.449,79.22 c -1.344,3.89 0.715,8.14 4.61,9.48 3.879,1.35 8.125,-0.71 9.48,-4.61 l 27.449,-79.21 c 0.7,-2.03 0.477,-4.15 -0.445,-5.9" /><path
         id="path202"
         style="fill:#efb854;fill-opacity:1;fill-rule:nonzero;stroke:none"
         d="m 905.531,1316.87 c -1.726,-3.29 -5.66,-4.84 -9.23,-3.49 -3.844,1.44 -5.793,5.75 -4.332,9.6 l 29.613,78.43 c 1.281,3.73 5.742,5.78 9.602,4.33 3.843,-1.44 5.793,-5.75 4.332,-9.6 l -29.61,-78.43 c -0.105,-0.29 -0.234,-0.57 -0.375,-0.84" /><path
         id="path204"
         style="fill:#333437;fill-opacity:1;fill-rule:nonzero;stroke:none"
         d="m 840.629,1084.57 c -4.234,0 -7.672,3.43 -7.672,7.67 v 105.75 c 0,4.24 3.438,7.68 7.672,7.68 4.238,0 7.676,-3.44 7.676,-7.68 v -105.75 c 0,-4.24 -3.438,-7.67 -7.676,-7.67" /><path
         id="path206"
         style="fill:#efb854;fill-opacity:1;fill-rule:nonzero;stroke:none"
         d="m 835.98,1283.94 c 0.333,3.2 4.407,4.38 6.442,1.89 14.074,-17.15 48.848,-61.99 48.848,-86.06 0,-30.19 -24.469,-54.66 -54.657,-54.66 -0.3,0 -0.601,0.01 -0.902,0.01 -37.223,0.6 -54.578,46.47 -28.856,73.38 12.575,13.16 25.86,34.11 29.125,65.44" /><path
         id="path208"
         style="fill:#d59d44;fill-opacity:1;fill-rule:nonzero;stroke:none"
         d="m 838.984,1224.07 c 0.192,1.82 2.508,2.49 3.664,1.08 8.004,-9.76 27.782,-35.26 27.782,-48.95 0,-17.17 -13.918,-31.09 -31.082,-31.09 -0.172,0 -0.344,0.01 -0.516,0.01 -21.172,0.34 -31.039,26.42 -16.41,41.73 7.152,7.49 14.707,19.4 16.562,37.22" /><path
         id="path210"
         style="fill:#84cdc6;fill-opacity:1;fill-rule:nonzero;stroke:none"
         d="M 926.438,1064.22 V 374.43 H 754.816 v 689.79 h 171.622" /><path
         id="path212"
         style="fill:#f0357e;fill-opacity:1;fill-rule:nonzero;stroke:none"
         d="M 926.438,389.648 V 374.43 H 878.582 L 754.816,498.199 V 561.27 L 926.438,389.648" /><path
         id="path214"
         style="fill:#f0357e;fill-opacity:1;fill-rule:nonzero;stroke:none"
         d="M 926.438,527.352 V 464.281 L 754.816,635.898 v 63.071 L 926.438,527.352" /><path
         id="path216"
         style="fill:#f0357e;fill-opacity:1;fill-rule:nonzero;stroke:none"
         d="M 926.438,665.051 V 601.98 L 754.816,773.602 v 63.07 L 926.438,665.051" /><path
         id="path218"
         style="fill:#f0357e;fill-opacity:1;fill-rule:nonzero;stroke:none"
         d="M 926.438,802.75 V 739.68 L 754.816,911.301 v 63.07 L 926.438,802.75" /><path
         id="path220"
         style="fill:#f0357e;fill-opacity:1;fill-rule:nonzero;stroke:none"
         d="m 926.438,940.449 v -63.07 L 754.816,1049 v 15.22 h 47.856 L 926.438,940.449" /><path
         id="path222"
         style="fill:#6cbfb5;fill-opacity:1;fill-rule:nonzero;stroke:none"
         d="m 931.297,1124.45 h -181.34 c -16.594,0 -30.07,-13.48 -30.07,-30.07 v -0.09 c 0,-16.59 13.476,-30.07 30.07,-30.07 h 56.016 v -31.36 c 0,-11.27 9.074,-20.35 20.351,-20.35 11.278,0 20.352,9.08 20.352,20.35 v -45.649 c 0,-11.281 9.078,-20.352 20.351,-20.352 11.278,0 20.356,9.071 20.356,20.352 v 77.009 h 43.914 c 16.594,0 30.07,13.48 30.07,30.07 v 0.09 c 0,16.59 -13.476,30.07 -30.07,30.07" /><path
         id="path224"
         style="fill:#84cdc6;fill-opacity:1;fill-rule:nonzero;stroke:none"
         d="M 954.246,385.711 H 727.008 c -6.418,0 -11.621,-5.199 -11.621,-11.621 v -40.43 c 0,-6.422 5.203,-11.629 11.621,-11.629 h 227.238 c 6.418,0 11.621,5.207 11.621,11.629 v 40.43 c 0,6.422 -5.203,11.621 -11.621,11.621" /><path
         id="path226"
         style="fill:#efb854;fill-opacity:1;fill-rule:nonzero;stroke:none"
         d="m 1308.45,1155.87 c -1.8,-2.03 -4.65,-3 -7.47,-2.27 -3.98,1.06 -6.36,5.14 -5.31,9.12 l 26.54,100.64 c 1.11,3.97 5.12,6.35 9.11,5.32 3.99,-1.06 6.36,-5.14 5.31,-9.12 l -26.53,-100.64 c -0.33,-1.17 -0.89,-2.21 -1.65,-3.05" /><path
         id="path228"
         style="fill:#efb854;fill-opacity:1;fill-rule:nonzero;stroke:none"
         d="m 1256.59,1169.53 c -1.22,-1.37 -2.94,-2.3 -4.91,-2.47 -4.09,-0.38 -7.71,2.65 -8.08,6.76 l -7.5,83.5 c -0.36,4.11 2.67,7.73 6.77,8.09 4.09,0.37 7.71,-2.65 8.08,-6.77 l 7.5,-83.5 c 0.18,-2.13 -0.54,-4.13 -1.86,-5.61" /><path
         id="path230"
         style="fill:#efb854;fill-opacity:1;fill-rule:nonzero;stroke:none"
         d="m 1360.29,1142.18 c -2.47,-2.77 -6.66,-3.33 -9.8,-1.16 -3.38,2.33 -4.23,6.98 -1.88,10.37 l 47.69,68.95 c 2.14,3.31 6.97,4.22 10.36,1.88 3.38,-2.33 4.23,-6.98 1.88,-10.37 l -47.68,-68.95 c -0.17,-0.25 -0.37,-0.49 -0.57,-0.72" /><path
         id="path232"
         style="fill:#333437;fill-opacity:1;fill-rule:nonzero;stroke:none"
         d="m 1238.23,945.172 c -0.46,0.039 -0.92,0.117 -1.38,0.238 -4.09,1.102 -6.52,5.301 -5.42,9.399 l 26.67,99.351 c 1.09,4.09 5.31,6.47 9.4,5.42 4.09,-1.1 6.52,-5.31 5.43,-9.4 l -26.67,-99.352 c -0.98,-3.629 -4.41,-5.949 -8.03,-5.656" /><path
         id="path234"
         style="fill:#efb854;fill-opacity:1;fill-rule:nonzero;stroke:none"
         d="m 1291.55,1131.75 c 0.49,3.08 -3.04,5.22 -5.58,3.4 -17.55,-12.57 -61.52,-45.92 -67.59,-68.54 -7.61,-28.35 9.21,-57.51 37.57,-65.12 0.28,-0.08 0.56,-0.15 0.85,-0.22 35.12,-8.821 62.99,29.89 45.61,61.66 -8.5,15.53 -15.7,38.56 -10.86,68.82" /><path
         id="path236"
         style="fill:#d59d44;fill-opacity:1;fill-rule:nonzero;stroke:none"
         d="m 1273.63,1076.26 c 0.28,1.75 -1.73,2.97 -3.17,1.94 -9.98,-7.15 -34.99,-26.12 -38.44,-38.99 -4.33,-16.12 5.23,-32.71 21.36,-37.03 0.16,-0.05 0.32,-0.09 0.49,-0.13 19.97,-5.019 35.82,17 25.94,35.07 -4.84,8.83 -8.93,21.93 -6.18,39.14" /><path
         id="path238"
         style="fill:#fde59e;fill-opacity:1;fill-rule:nonzero;stroke:none"
         d="M 1151.17,948.141 977.246,300.109 1138.48,256.84 1312.4,904.859 1151.17,948.141" /><path
         id="path240"
         style="fill:#c61f6e;fill-opacity:1;fill-rule:nonzero;stroke:none"
         d="m 981.082,314.41 -3.836,-14.301 44.954,-12.07 147.48,85.07 15.91,59.262 L 981.082,314.41" /><path
         id="path242"
         style="fill:#c61f6e;fill-opacity:1;fill-rule:nonzero;stroke:none"
         d="M 1015.8,443.77 999.898,384.512 1204.4,502.469 1220.31,561.73 1015.8,443.77" /><path
         id="path244"
         style="fill:#c61f6e;fill-opacity:1;fill-rule:nonzero;stroke:none"
         d="m 1050.52,573.129 -15.9,-59.25 204.5,117.961 15.9,59.25 -204.5,-117.961" /><path
         id="path246"
         style="fill:#c61f6e;fill-opacity:1;fill-rule:nonzero;stroke:none"
         d="m 1085.24,702.5 -15.9,-59.262 204.5,117.961 15.9,59.262 -204.5,-117.961" /><path
         id="path248"
         style="fill:#c61f6e;fill-opacity:1;fill-rule:nonzero;stroke:none"
         d="m 1119.96,831.859 -15.9,-59.25 204.5,117.961 3.84,14.289 -44.96,12.071 -147.48,-85.071" /><path
         id="path250"
         style="fill:#efd38b;fill-opacity:1;fill-rule:nonzero;stroke:none"
         d="m 1332.15,960.23 -170.36,45.72 c -15.59,4.18 -31.65,-5.08 -35.83,-20.669 l -0.03,-0.09 c -4.18,-15.589 5.08,-31.64 20.67,-35.832 l 41.26,-11.07 -19.42,-72.348 c -2.84,-10.589 3.39,-21.41 13.99,-24.25 10.59,-2.839 21.41,3.391 24.25,13.989 l 11.51,42.89 c -2.84,-10.59 3.4,-21.41 13.99,-24.25 10.59,-2.851 21.41,3.391 24.25,13.989 l 7.91,29.453 52.62,-14.121 c 15.59,-4.18 31.65,5.078 35.83,20.668 l 0.03,0.082 c 4.18,15.589 -5.08,31.648 -20.67,35.839" /><path
         id="path252"
         style="fill:#fde59e;fill-opacity:1;fill-rule:nonzero;stroke:none"
         d="M 1169.44,254.531 949.938,313.32 c -6.2,1.66 -12.571,-2.019 -14.231,-8.218 l -10.461,-39.063 c -1.66,-6.199 2.02,-12.57 8.219,-14.23 L 1152.97,193.02 c 6.2,-1.661 12.57,2.019 14.23,8.218 l 10.46,39.051 c 1.66,6.199 -2.02,12.57 -8.22,14.242" /><path
         id="path254"
         style="fill:#efb854;fill-opacity:1;fill-rule:nonzero;stroke:none"
         d="m 372.801,1155.87 c 1.801,-2.03 4.648,-3 7.465,-2.27 3.992,1.06 6.363,5.14 5.316,9.12 l -26.535,100.64 c -1.117,3.97 -5.125,6.35 -9.113,5.32 -3.989,-1.06 -6.364,-5.14 -5.317,-9.12 l 26.539,-100.64 c 0.321,-1.17 0.891,-2.21 1.645,-3.05" /><path
         id="path256"
         style="fill:#efb854;fill-opacity:1;fill-rule:nonzero;stroke:none"
         d="m 424.66,1169.53 c 1.223,-1.37 2.942,-2.3 4.91,-2.47 4.09,-0.38 7.711,2.65 8.086,6.76 l 7.492,83.5 c 0.364,4.11 -2.664,7.73 -6.765,8.09 -4.09,0.37 -7.711,-2.65 -8.086,-6.77 l -7.492,-83.5 c -0.188,-2.13 0.543,-4.13 1.855,-5.61" /><path
         id="path258"
         style="fill:#efb854;fill-opacity:1;fill-rule:nonzero;stroke:none"
         d="m 320.961,1142.18 c 2.465,-2.77 6.66,-3.33 9.797,-1.16 3.383,2.33 4.234,6.98 1.883,10.37 l -47.684,68.95 c -2.148,3.31 -6.973,4.22 -10.367,1.88 -3.383,-2.33 -4.231,-6.98 -1.883,-10.37 l 47.688,-68.95 c 0.171,-0.25 0.363,-0.49 0.566,-0.72" /><path
         id="path260"
         style="fill:#333437;fill-opacity:1;fill-rule:nonzero;stroke:none"
         d="m 443.027,945.172 c 0.457,0.039 0.911,0.117 1.371,0.238 4.09,1.102 6.524,5.301 5.426,9.399 l -26.668,99.351 c -1.097,4.09 -5.312,6.47 -9.41,5.42 -4.086,-1.1 -6.519,-5.31 -5.422,-9.4 l 26.668,-99.352 c 0.981,-3.629 4.41,-5.949 8.035,-5.656" /><path
         id="path262"
         style="fill:#efb854;fill-opacity:1;fill-rule:nonzero;stroke:none"
         d="m 389.703,1131.75 c -0.492,3.08 3.039,5.22 5.578,3.4 17.547,-12.57 61.52,-45.92 67.586,-68.54 7.613,-28.35 -9.207,-57.51 -37.562,-65.12 -0.285,-0.08 -0.567,-0.15 -0.852,-0.22 -35.121,-8.821 -62.988,29.89 -45.609,61.66 8.496,15.53 15.691,38.56 10.859,68.82" /><path
         id="path264"
         style="fill:#d59d44;fill-opacity:1;fill-rule:nonzero;stroke:none"
         d="m 407.625,1076.26 c -0.281,1.75 1.727,2.97 3.172,1.94 9.976,-7.15 34.984,-26.12 38.437,-38.99 4.329,-16.12 -5.238,-32.71 -21.363,-37.03 -0.16,-0.05 -0.324,-0.09 -0.484,-0.13 -19.977,-5.019 -35.824,17 -25.942,35.07 4.832,8.83 8.926,21.93 6.18,39.14" /><path
         id="path266"
         style="fill:#f0357e;fill-opacity:1;fill-rule:nonzero;stroke:none"
         d="M 530.086,948.141 704.008,300.109 542.773,256.84 368.855,904.859 530.086,948.141" /><path
         id="path268"
         style="fill:#fde59e;fill-opacity:1;fill-rule:nonzero;stroke:none"
         d="m 700.172,314.41 3.836,-14.301 -44.961,-12.07 -147.477,85.07 -15.902,59.262 204.504,-117.961" /><path
         id="path270"
         style="fill:#fde59e;fill-opacity:1;fill-rule:nonzero;stroke:none"
         d="M 665.449,443.77 681.355,384.512 476.852,502.469 460.945,561.73 665.449,443.77" /><path
         id="path272"
         style="fill:#fde59e;fill-opacity:1;fill-rule:nonzero;stroke:none"
         d="m 630.73,573.129 15.903,-59.25 -204.5,117.961 -15.906,59.25 204.503,-117.961" /><path
         id="path274"
         style="fill:#fde59e;fill-opacity:1;fill-rule:nonzero;stroke:none"
         d="M 596.012,702.5 611.914,643.238 407.41,761.199 391.508,820.461 596.012,702.5" /><path
         id="path276"
         style="fill:#fde59e;fill-opacity:1;fill-rule:nonzero;stroke:none"
         d="m 561.293,831.859 15.902,-59.25 -204.504,117.961 -3.836,14.289 44.958,12.071 147.48,-85.071" /><path
         id="path278"
         style="fill:#c61f6e;fill-opacity:1;fill-rule:nonzero;stroke:none"
         d="m 349.102,960.23 170.363,45.72 c 15.59,4.18 31.648,-5.08 35.832,-20.669 l 0.023,-0.09 c 4.184,-15.589 -5.082,-31.64 -20.668,-35.832 l -41.257,-11.07 19.418,-72.348 c 2.843,-10.589 -3.395,-21.41 -13.989,-24.25 -10.594,-2.839 -21.41,3.391 -24.254,13.989 l -11.511,42.89 c 2.843,-10.59 -3.395,-21.41 -13.989,-24.25 -10.593,-2.851 -21.41,3.391 -24.25,13.989 l -7.906,29.453 -52.625,-14.121 c -15.59,-4.18 -31.648,5.078 -35.832,20.668 l -0.023,0.082 c -4.184,15.589 5.078,31.648 20.668,35.839" /><path
         id="path280"
         style="fill:#f0357e;fill-opacity:1;fill-rule:nonzero;stroke:none"
         d="m 511.809,254.531 219.504,58.789 c 6.199,1.66 12.574,-2.019 14.234,-8.218 l 10.461,-39.063 c 1.66,-6.199 -2.02,-12.57 -8.223,-14.23 l -219.5,-58.789 c -6.199,-1.661 -12.57,2.019 -14.234,8.218 l -10.461,39.051 c -1.66,6.199 2.019,12.57 8.219,14.242" /></g></g></svg>